<svg width="293" height="80" viewBox="0 0 293 80" fill="none" xmlns="http://www.w3.org/2000/svg">
<path d="M35.0174 64.3935L5.40487 37.3131C2.82112 34.9428 1.06304 31.9256 0.352491 28.6424C-0.358056 25.3592 0.0107677 21.9571 1.41242 18.8654C2.81407 15.7737 5.18574 13.131 8.22815 11.2707C11.2706 9.41035 14.8474 8.41586 18.5072 8.41268C20.9426 8.40456 23.3554 8.83916 25.6055 9.6912C27.8556 10.5432 29.8982 11.7957 31.6144 13.3759L36.0659 17.4424L32.1192 21.0516L27.6531 16.9718C25.2249 14.753 21.9323 13.5072 18.4996 13.5085C15.067 13.5097 11.7754 14.7579 9.34916 16.9785C6.92287 19.1991 5.56057 22.2101 5.56193 25.3492C5.5633 28.4884 6.92822 31.4984 9.35644 33.7172L33.1435 55.4703L55.2218 8.41268H77.7273V13.518H58.9015L35.0174 64.3935Z" fill="#0364FF"/>
<path d="M55.2266 32.5543H76.6252V27.449H57.6247L55.2266 32.5543Z" fill="#0364FF"/>
<path d="M10.5751 28.1992C11.2135 29.9133 12.2769 31.4692 13.682 32.7452L14.9878 33.9438H37.3186L40.0128 28.1992H10.5751Z" fill="#78FF6C"/>
<path d="M94.3697 61H127.148V55.478H100.316V37.6377H124.174V32.1157H100.316V16.3992H125.873V10.8772H94.3697V61ZM135.91 35.7262C138.53 33.3192 142.211 32.1157 145.751 32.1157C150.919 32.1157 153.963 34.5935 153.963 39.4076V40.3987H151.839C143.698 40.3987 130.955 41.0358 130.955 52.009C130.955 58.4514 136.547 61.8495 143.273 61.8495C148.299 61.8495 151.981 59.4425 154.175 56.0444H154.317C154.317 57.4603 154.317 59.5133 154.671 61H159.981C159.697 59.3009 159.485 57.1771 159.485 55.2656V41.0358C159.485 31.6909 155.379 27.0185 145.609 27.0185C140.795 27.0185 135.839 28.6467 132.441 32.1157L135.91 35.7262ZM153.963 45.0711V47.195C153.821 52.5754 150.565 57.1771 144.193 57.1771C140.016 57.1771 136.901 55.6196 136.901 51.4427C136.901 46.9826 141.432 45.0711 148.441 45.0711H153.963ZM163.984 61H191.17V56.3275H171.205L190.674 32.1157V27.868H164.834V32.5405H183.453L163.984 56.6815V61ZM196.574 61H202.096V27.868H196.574V61ZM195.299 14.9125C195.299 17.2488 196.999 18.9478 199.335 18.9478C201.671 18.9478 203.37 17.2488 203.37 14.9125C203.37 12.7179 201.6 10.8772 199.335 10.8772C197.069 10.8772 195.299 12.7179 195.299 14.9125ZM211.599 61H217.546V38.4872H240.908V32.9652H217.546V16.3992H242.678V10.8772H211.599V61ZM247.964 61H253.486V27.868H247.964V61ZM246.689 14.9125C246.689 17.2488 248.388 18.9478 250.725 18.9478C253.061 18.9478 254.76 17.2488 254.76 14.9125C254.76 12.7179 252.99 10.8772 250.725 10.8772C248.459 10.8772 246.689 12.7179 246.689 14.9125ZM280.121 27.868H270.351V18.4523H264.829V27.868H257.608V32.5405H264.829V50.7347C264.829 57.6018 266.104 61.8495 273.962 61.8495C276.015 61.8495 278.493 61.4956 280.404 60.646L280.192 55.6196C278.705 56.3983 276.935 56.7523 275.307 56.7523C270.422 56.7523 270.351 53.3542 270.351 49.1065V32.5405H280.121V27.868Z" fill="#0364FF"/>
</svg>
