<svg width="24" height="24" viewBox="0 0 24 24" fill="none" xmlns="http://www.w3.org/2000/svg">
<path d="M11.266 7L24 4.375L23.992 4.333L22.984 0L1.815 4.196C0.761 4.405 0 5.33 0 6.403V21C0 22.657 1.343 24 3 24H21C22.657 24 24 22.657 24 21V7H11.266ZM20.11 1.757L22.506 3.361L19.512 3.956L17.114 2.351L20.11 1.757ZM14.212 2.926L16.612 4.532L13.618 5.127L11.217 3.52L14.212 2.926ZM8.308 4.097L10.711 5.705L7.718 6.3L5.312 4.69L8.308 4.097ZM5.753 10L7.792 8H10.846L8.807 10H5.753ZM10 20V13L16 16.414L10 20ZM14.827 10H11.773L13.812 8H16.866L14.827 10ZM20.839 10H17.785L19.824 8H22.878L20.839 10Z" fill="#78FF6C"/>
</svg>
